<?xml version="1.0" encoding="iso-8859-1"?>
<!-- Uploaded to: SVG Repo, www.svgrepo.com, Generator: SVG Repo Mixer Tools -->
<svg height="800px" width="800px" version="1.1" id="Layer_1" xmlns="http://www.w3.org/2000/svg" xmlns:xlink="http://www.w3.org/1999/xlink" 
	 viewBox="0 0 512 512" xml:space="preserve">
<path style="fill:#736056;" d="M172.672,310.969c9.216,0,16.688-7.471,16.688-16.688v-83.273c0-9.451-7.879-17.07-17.423-16.643
	c-8.988,0.402-15.897,8.17-15.897,17.167v82.804C156.04,303.522,163.487,310.969,172.672,310.969L172.672,310.969z"/>
<path style="fill:#43BFBF;" d="M172.7,355.396c-18.374,0-33.32-14.946-33.32-33.32s14.946-33.32,33.32-33.32
	s33.32,14.946,33.32,33.32S191.074,355.396,172.7,355.396z"/>
<path style="fill:#736056;" d="M72.712,310.969c9.216,0,16.688-7.471,16.688-16.688v-83.273c0-9.451-7.879-17.07-17.423-16.643
	c-8.988,0.402-15.897,8.17-15.897,17.167v82.804C56.079,303.522,63.526,310.969,72.712,310.969L72.712,310.969z"/>
<path style="fill:#E65C89;" d="M72.739,355.396c-18.374,0-33.32-14.946-33.32-33.32s14.946-33.32,33.32-33.32
	s33.32,14.946,33.32,33.32S91.113,355.396,72.739,355.396z"/>
<path style="fill:#736056;" d="M337.107,310.969c-9.216,0-16.688-7.471-16.688-16.688v-83.273c0-9.451,7.879-17.07,17.423-16.643
	c8.988,0.402,15.897,8.17,15.897,17.167v82.804C353.74,303.522,346.293,310.969,337.107,310.969L337.107,310.969z"/>
<path style="fill:#43BFBF;" d="M337.08,355.396c18.374,0,33.32-14.946,33.32-33.32s-14.946-33.32-33.32-33.32
	s-33.32,14.946-33.32,33.32S318.706,355.396,337.08,355.396z"/>
<path style="fill:#736056;" d="M437.067,310.969c-9.216,0-16.688-7.471-16.688-16.688v-83.273c0-9.451,7.879-17.07,17.423-16.643
	c8.988,0.402,15.897,8.17,15.897,17.167v82.804C453.7,303.522,446.253,310.969,437.067,310.969L437.067,310.969z"/>
<path style="fill:#E65C89;" d="M437.04,355.396c18.374,0,33.32-14.946,33.32-33.32s-14.946-33.32-33.32-33.32
	s-33.32,14.946-33.32,33.32S418.667,355.396,437.04,355.396z"/>
<path style="fill:#D7EBFF;" d="M256,445.36c-9.197,0-16.66-7.463-16.66-16.66V227.668c0-9.197,7.463-16.66,16.66-16.66
	s16.66,7.463,16.66,16.66V428.7C272.66,437.897,265.197,445.36,256,445.36z"/>
<path style="fill:#BDDEFF;" d="M272.66,428.7V227.668c0-9.197-7.463-16.66-16.66-16.66V445.36
	C265.197,445.36,272.66,437.897,272.66,428.7z"/>
<path style="fill:#36D9D9;" d="M422.6,512H89.399c-9.197,0-16.66-7.463-16.66-16.66v-33.32c0-27.56,22.42-49.98,49.98-49.98H389.28
	c27.56,0,49.98,22.42,49.98,49.98v33.32C439.261,504.537,431.798,512,422.6,512z"/>
<path style="fill:#43BFBF;" d="M439.261,495.34v-33.32H72.739v33.32c0,9.197,7.463,16.66,16.66,16.66H422.6
	C431.798,512,439.261,504.537,439.261,495.34z"/>
<path style="fill:#D9472B;" d="M256,244.329L256,244.329c-20.242,0-36.652-16.41-36.652-36.652v-63.308h73.304v63.308
	C292.652,227.918,276.243,244.329,256,244.329z"/>
<path style="fill:#E6563A;" d="M256,244.329L256,244.329c-20.242,0-36.652-16.41-36.652-36.652v-63.308h73.304v63.308
	C292.652,227.918,276.243,244.329,256,244.329z"/>
<path style="fill:#D9472B;" d="M256,144.368v99.96l0,0c20.242,0,36.652-16.41,36.652-36.652v-63.308H256z"/>
<path style="fill:#E6563A;" d="M109.392,244.329L109.392,244.329c-20.242,0-36.652-16.41-36.652-36.652v-63.308h73.304v63.308
	C146.044,227.918,129.635,244.329,109.392,244.329z"/>
<path style="fill:#FFC033;" d="M37.198,244.329L37.198,244.329c-20.242,0-36.652-16.41-36.652-36.652v-57.698
	c0-3.099,2.511-5.61,5.61-5.61H73.85v63.308C73.85,227.918,57.441,244.329,37.198,244.329z"/>
<path style="fill:#D9472B;" d="M402.608,244.329L402.608,244.329c-20.242,0-36.652-16.41-36.652-36.652v-63.308h73.304v63.308
	C439.261,227.918,422.852,244.329,402.608,244.329z"/>
<path style="fill:#F9A926;" d="M474.802,244.329L474.802,244.329c-20.242,0-36.652-16.41-36.652-36.652v-63.308h66.755
	c3.617,0,6.55,2.932,6.55,6.55v56.759C511.454,227.918,495.045,244.329,474.802,244.329z"/>
<path style="fill:#FF6698;" d="M494.661,166.582H17.339c-17.204,0-23.113-22.913-8.052-31.243L244.516,4.046l2.255-1.255
	c5.587-3.721,12.873-3.721,18.459,0l2.388,1.333l235.095,131.215C517.774,143.668,511.865,166.582,494.661,166.582z"/>
<path style="fill:#E65C89;" d="M502.713,135.338L267.618,4.124l-2.388-1.333C262.436,0.931,259.219,0,256,0v166.582h238.661
	C511.865,166.582,517.774,143.668,502.713,135.338z"/>
<path style="fill:#FFC033;" d="M365.956,166.582H146.044L244.516,4.046l2.255-1.255c5.587-3.721,12.873-3.721,18.459,0l2.388,1.333
	L365.956,166.582z"/>
<path style="fill:#F9A926;" d="M267.618,4.124l-2.388-1.333C262.436,0.931,259.219,0,256,0v166.582h36.652v41.095
	c0,20.242,16.41,36.652,36.652,36.652s36.652-16.41,36.652-36.652v-41.095L267.618,4.124z"/>
<path style="fill:#FFC033;" d="M246.77,2.791l-2.255,1.255l-98.472,162.535v41.095c0,20.242,16.41,36.652,36.652,36.652
	s36.652-16.41,36.652-36.652v-41.095H256V0C252.782,0,249.564,0.931,246.77,2.791z"/>
</svg>